<?xml version="1.0" encoding="utf-8"?>
<!-- Generator: Adobe Illustrator 18.1.1, SVG Export Plug-In . SVG Version: 6.00 Build 0)  -->
<svg version="1.1" id="Layer_1" xmlns="http://www.w3.org/2000/svg" xmlns:xlink="http://www.w3.org/1999/xlink" x="0px" y="0px"
	 viewBox="0 0 1372.4 126.2" style="enable-background:new 0 0 1372.4 126.2;" xml:space="preserve">
<style type="text/css">
	.st0{fill:#005A57;}
</style>
<path class="st0" d="M197.4,35.8L184.5,22C139.6,60.9,72.9,116.7,50.3,125H79C98.2,117.8,152,74.3,197.4,35.8z"/>
<path class="st0" d="M176.3,13.3L163.5,0C109.4,46.9,21.4,118.3,0,125h30.8C53.4,114.9,122.6,58.7,176.3,13.3z"/>
<path class="st0" d="M240.4,81.5l-12.5-13.3c-33.6,27.5-65.2,51.6-79.1,56.8h28.7C189.1,120.7,213.2,103.2,240.4,81.5z"/>
<path class="st0" d="M219,58.6l-12.5-13.3c-43,36.3-90.2,74-107.3,79.7h28.8C142.7,120,180.8,90.4,219,58.6z"/>
<g>
	<path d="M276.4,61.6c0-9.1-2.4-11.1-11.8-11v-3.4c3.6,0,14.3-0.5,19.6-0.7c6.7-0.2,13.1-0.2,17.8-0.2c18.8,0,32.4,3.4,40,11
		c7.7,7.7,10.7,17.2,10.7,26.6c0,18.3-12.8,41-49.4,41h-38.8v-3.4c10.6,0,11.8-1.7,11.8-10.1V61.6z M290.2,112.4c0,7.9,1.1,9,9.2,9
		c15,0,22.7-3.2,28.4-9c7.6-7.6,9.7-18.1,9.7-26.8c0-9-2-19.1-9.6-26.7c-6.2-6.2-14.1-9.1-28.7-9.1c-2.1,0-6,0-9.1,0.2V112.4z"/>
	<path d="M407.9,118.5c-5.9,5.2-10.6,7.7-14.7,7.7c-4.7,0-7.1-2.6-7-7.7c-6,4.6-7.4,7.7-14.7,7.7c-7.6,0-13-5-13-12
		c0-3.5,1.1-6.5,3.2-8.6c2.5-2.5,6.2-3.7,10.6-5c4.4-1.4,9.2-2.9,13.8-6.1v-4c0-8.7-2.6-12.6-8.5-12.6c-3.9,0-7,2.4-7,5.2
		c0,1.1,0.6,2.6,1.2,3.7l-11.3,4.6c-1.1-1.5-1.5-2.7-1.5-3.9c0-6.1,11.6-14.3,22.6-14.3c10.2,0,16.3,5,16.3,14v27.9
		c0,2.6,0.7,4.2,2.6,4.2c1.5,0,3.5-1,6.1-3.2L407.9,118.5z M386.2,98.2C372.9,106,371,106.8,371,113c0,4.4,2.4,7.4,5.9,7.4
		c1.9,0,3.1-0.7,4.5-1.7c1.2-1,2.2-1.7,4.9-3.5V98.2z"/>
	<path d="M410.8,81.3v-2.5l17.1-5.5h3.1v12.5h0.2c4.9-9.2,7.7-12.5,11.1-12.5c1.9,0,4.2,1.6,11.7,3.1l-4.1,10.2
		c-5.6-1.1-9.2-3.5-10.8-3.5c-2.9,0-5.5,2.6-8.1,8v20.7c0,9,2.2,10,12.5,9.8v3.1h-32.7v-3.1c5.7,0,8.4-2,8.4-9.3V84.5L410.8,81.3z"
		/>
	<path d="M493.8,115.7c-3.6,8-9.5,10.5-15.6,10.5c-8.4,0-14.3-5-14.3-16.3V81.2h-5.6v-2.4c7.6-4,12-9.6,14.5-18.1h3v14h18.1
		l-2.7,6.5h-15.3v27.2c0,6.2,1.9,11.5,7.4,11.5c3.5,0,5.6-1.7,8-6.2L493.8,115.7z"/>
	<path d="M500,78.8l16.8-5.5h3.1v10c10.3-7,17.3-10,22.9-10c6.1,0,10,3.4,11.6,10.3c10.3-7.1,17.8-10.3,23.3-10.3
		c8.2,0,12.5,6.4,12.5,17.1v21.3c0,6.1,1,10,8.2,10v3.1h-28.2v-3.1c5,0,8.1-1.9,8.1-8.9V90.8c0-5.6-2-10.3-7.6-10.3
		c-4.1,0-9.5,2.4-15.7,7v24.3c0,7.7,2.4,10,8.4,10v3.1h-28.3v-3.1c5.2,0,8.1-1.9,8.1-9V91.8c0-5.9-1-11.3-7.6-11.3
		c-4.2,0-9.2,2.2-15.7,7V112c0,7.7,2.2,9.7,8.2,9.7v3.1H500v-3.1c5.9,0,8.1-2.7,8.1-9.2V90.6c0-6.9-0.2-7.2-8.1-8.6V78.8z"/>
	<path d="M626.8,73.4c21.1,0,28.9,15.2,28.9,26.3c0,15.2-12.1,26.6-28.4,26.6c-17.7,0-28.9-10.5-28.9-26.8
		C598.4,83.6,609.5,73.4,626.8,73.4z M629.2,122.2c8.4,0,13.8-7,13.8-18.4c0-15-8.2-26.4-17.8-26.4c-8.5,0-14.1,7.2-14.1,18.5
		C611.1,110.6,619.1,122.2,629.2,122.2z"/>
	<path d="M704,126.2h-2.9v-9.5c-11.2,7.4-16.2,9.5-21.8,9.5c-9.1,0-13.3-6.5-13.3-16.1V88c0-6.4-0.2-6.6-7.7-8.1v-2.7l16.5-3.7h3.1
		v33.4c0,6.7,2.4,11.8,9.6,11.8c3.5,0,7.2-1.7,13.7-6.2V86.8c0-5.2-0.7-6.4-10.7-7.5v-3l19.4-3h3.1V113c0,5.1,0.5,6,3.1,6
		c1.2,0,2.6-0.2,5.2-0.7v3.1L704,126.2z"/>
	<path d="M758.6,115.7c-3.6,8-9.5,10.5-15.6,10.5c-8.4,0-14.3-5-14.3-16.3V81.2H723v-2.4c7.6-4,12-9.6,14.5-18.1h3v14h18.1l-2.7,6.5
		h-15.3v27.2c0,6.2,1.9,11.5,7.4,11.5c3.5,0,5.6-1.7,8-6.2L758.6,115.7z"/>
	<path d="M795.6,121.7c8,0,9.5-1.9,9.5-24.6c0-12.5-3.1-17.2-9.3-17.2c-3.7,0-8.4,1.6-14.7,5.2v27.4c0,6.7,2.4,9.1,8.4,9.1v3.1
		h-28.3v-3.1c5.5,0,8.1-2,8.1-10.1V56c0-3.4-0.4-5.4-8.1-6.5v-3.1l16.8-5.2h3.1v40.6c8.5-5.5,16.6-8.5,22.7-8.5
		c8.5,0,13.2,5.4,13.2,20.7c0,7.2-0.9,15.1-0.9,19.7c0,6.1,2.7,8,9.6,8v3.1h-30V121.7z"/>
	<path d="M828,87.7h27V95h-27V87.7z"/>
	<path d="M881.6,110.6c0,7.2,1.1,10.6,11.1,10.8v3.4h-36v-3.4c10.1-0.6,11.1-3.4,11.1-11.7V63.3c0-9.4-1.4-12.5-11.1-12.6v-3.4h36
		v3.4c-9.3,0.4-11.1,2.4-11.1,13.2v18.6h45V63.8c0-10.1-1.2-12.7-11.5-13.1v-3.4h36.7v3.4c-9.8,0.5-11.3,2.6-11.3,12.2v47
		c0,8.9,1.4,11,11.3,11.6v3.4h-36.7v-3.4c9.7-0.4,11.5-3,11.5-11.8V88.1h-45V110.6z"/>
	<path d="M958.1,77.2l18.8-5.2h2.7v39.5c0,8.2,1.7,10.2,9.1,10.2v3.1h-30.7v-3.1c7,0.2,9.7-2.1,9.7-8.9V85c0-2.6-0.2-3.7-9.7-5V77.2
		z M973.1,44.1c4.5,0,7.6,2.6,7.6,6.5c0,4-3.2,6.7-8,6.7c-4.5,0-7.6-2.6-7.6-6.6C965.1,46.7,968.2,44.1,973.1,44.1z"/>
	<path d="M1026.8,115.7c-3.6,8-9.5,10.5-15.6,10.5c-8.4,0-14.3-5-14.3-16.3V81.2h-5.6v-2.4c7.6-4,12-9.6,14.5-18.1h3v14h18.1
		l-2.7,6.5h-15.3v27.2c0,6.2,1.9,11.5,7.4,11.5c3.5,0,5.6-1.7,8-6.2L1026.8,115.7z"/>
	<path d="M1077.4,112.9c-6.7,8.9-14.8,13.3-24.1,13.3c-13.7,0-22.9-9.8-22.9-24.4c0-16.8,12.7-28.4,31-28.4c9.8,0,16.2,3.4,16.2,8.6
		c0,2.9-2.2,5-5.4,5c-6.7,0-9.5-9.6-16.1-9.6c-7.7,0-13.5,9.2-13.5,21.1c0,13,6.1,21.8,15.2,21.8c6.2,0,11-2.6,17.1-9.5
		L1077.4,112.9z"/>
	<path d="M1113.7,121.7c8,0,9.5-1.9,9.5-24.6c0-12.5-3.1-17.2-9.3-17.2c-3.7,0-8.4,1.6-14.7,5.2v27.4c0,6.7,2.4,9.1,8.4,9.1v3.1
		h-28.3v-3.1c5.5,0,8.1-2,8.1-10.1V56c0-3.4-0.4-5.4-8.1-6.5v-3.1l16.8-5.2h3.1v40.6c8.5-5.5,16.6-8.5,22.7-8.5
		c8.5,0,13.2,5.4,13.2,20.7c0,7.2-0.9,15.1-0.9,19.7c0,6.1,2.7,8,9.6,8v3.1h-30V121.7z"/>
	<path d="M1192.1,112.9c-6.7,8.9-14.8,13.3-24.1,13.3c-13.7,0-22.9-9.8-22.9-24.4c0-16.8,12.7-28.4,31-28.4c9.8,0,16.2,3.4,16.2,8.6
		c0,2.9-2.2,5-5.4,5c-6.7,0-9.5-9.6-16.1-9.6c-7.7,0-13.5,9.2-13.5,21.1c0,13,6.1,21.8,15.2,21.8c6.2,0,11-2.6,17.1-9.5
		L1192.1,112.9z"/>
	<path d="M1224.4,73.4c21.1,0,28.9,15.2,28.9,26.3c0,15.2-12.1,26.6-28.4,26.6c-17.7,0-28.9-10.5-28.9-26.8
		C1196,83.6,1207.1,73.4,1224.4,73.4z M1226.7,122.2c8.4,0,13.8-7,13.8-18.4c0-15-8.2-26.4-17.8-26.4c-8.5,0-14.1,7.2-14.1,18.5
		C1208.7,110.6,1216.6,122.2,1226.7,122.2z"/>
	<path d="M1305.5,112.9c-6.7,8.9-14.8,13.3-24.1,13.3c-13.7,0-22.9-9.8-22.9-24.4c0-16.8,12.7-28.4,31-28.4c9.8,0,16.2,3.4,16.2,8.6
		c0,2.9-2.2,5-5.4,5c-6.7,0-9.5-9.6-16.1-9.6c-7.7,0-13.5,9.2-13.5,21.1c0,13,6.1,21.8,15.2,21.8c6.2,0,11-2.6,17.1-9.5
		L1305.5,112.9z"/>
	<path d="M1342.3,121.7c3.7,0,5-0.6,5-2.5c0-1-0.6-2.4-2-3.7l-17.6-18.3v15.5c0,6.7,2.2,9.1,9.1,9.1v3.1h-29v-3.1
		c5.2,0,8.1-2,8.1-8.5V57.4c0-5.2-0.7-6.6-8.1-7.9v-3.1l16.8-5.2h3.1v54.2l14.6-11.1c3.4-2.5,4.5-3.7,4.5-4.6c0-1.4-1.6-1.9-6.5-1.9
		v-3.1h27.2v3.1c-7.5,0-12,2.1-20.2,8.4l-9,6.9l22.1,23.4c2.6,2.7,7.6,5.2,12,5.2v3.1h-30V121.7z"/>
</g>
</svg>
